<svg width="500" height="393" viewBox="0 0 500 393" fill="none" xmlns="http://www.w3.org/2000/svg">
<path d="M500 347.4H0V347.65H500V347.4Z" fill="#EBEBEB"/>
<path d="M315.67 354.21H290.21V354.46H315.67V354.21Z" fill="#EBEBEB"/>
<path d="M455.44 359.62H395.11V359.87H455.44V359.62Z" fill="#EBEBEB"/>
<path d="M284.79 354.33H222.46V354.58H284.79V354.33Z" fill="#EBEBEB"/>
<path d="M182.04 361.81H169V362.06H182.04V361.81Z" fill="#EBEBEB"/>
<path d="M254.09 361.81H194.71V362.06H254.09V361.81Z" fill="#EBEBEB"/>
<path d="M90.91 357.59H52.46V357.84H90.91V357.59Z" fill="#EBEBEB"/>
<path d="M237 302.8H43.91C42.3973 302.797 40.9476 302.195 39.8789 301.124C38.8102 300.054 38.21 298.603 38.21 297.09V25.66C38.2232 24.156 38.8292 22.718 39.8964 21.6582C40.9637 20.5985 42.406 20.0026 43.91 20H237C238.514 20 239.967 20.6016 241.038 21.6724C242.108 22.7433 242.71 24.1956 242.71 25.71V297.09C242.71 298.604 242.108 300.057 241.038 301.128C239.967 302.198 238.514 302.8 237 302.8V302.8ZM43.91 20.2C42.4637 20.2026 41.0774 20.7791 40.0557 21.8027C39.0339 22.8264 38.46 24.2136 38.46 25.66V297.09C38.46 298.536 39.0339 299.924 40.0557 300.947C41.0774 301.971 42.4637 302.547 43.91 302.55H237C238.447 302.547 239.835 301.971 240.858 300.948C241.881 299.924 242.457 298.537 242.46 297.09V25.66C242.457 24.2127 241.881 22.8255 240.858 21.8021C239.835 20.7787 238.447 20.2026 237 20.2H43.91Z" fill="#EBEBEB"/>
<path d="M453.31 302.8H260.21C258.696 302.797 257.246 302.195 256.175 301.125C255.105 300.054 254.503 298.604 254.5 297.09V25.66C254.516 24.1551 255.124 22.7171 256.193 21.6576C257.262 20.5981 258.705 20.0025 260.21 20H453.31C454.812 20.0052 456.252 20.6022 457.317 21.6617C458.382 22.7212 458.987 24.1578 459 25.66V297.09C459 298.601 458.401 300.05 457.335 301.121C456.268 302.191 454.821 302.795 453.31 302.8V302.8ZM260.21 20.2C258.763 20.2026 257.375 20.7787 256.352 21.8021C255.329 22.8255 254.753 24.2127 254.75 25.66V297.09C254.753 298.537 255.329 299.924 256.352 300.948C257.375 301.971 258.763 302.547 260.21 302.55H453.31C454.757 302.547 456.145 301.971 457.168 300.948C458.191 299.924 458.767 298.537 458.77 297.09V25.66C458.767 24.2127 458.191 22.8255 457.168 21.8021C456.145 20.7787 454.757 20.2026 453.31 20.2H260.21Z" fill="#EBEBEB"/>
<path d="M263.09 174.76C307.607 167.534 337.838 125.588 330.611 81.0707C323.385 36.5538 281.439 6.32364 236.922 13.5498C192.406 20.7759 162.175 62.7219 169.401 107.239C176.628 151.756 218.574 181.986 263.09 174.76Z" fill="#EBEBEB"/>
<path d="M250 12.5C252.667 12.5 255.333 12.63 258 12.89L326.33 123.25C320.568 138.323 310.479 151.356 297.33 160.71L211.53 22.12C223.362 15.7841 236.579 12.4789 250 12.5V12.5Z" fill="#F5F5F5"/>
<path d="M201.06 28.78L286.72 167.12C280.475 170.278 273.846 172.611 267 174.06L186.06 43.38C190.416 37.8925 195.457 32.9859 201.06 28.78V28.78Z" fill="#F5F5F5"/>
<path d="M354.07 119.37H356.9V107.52H354.07V119.37Z" fill="#E6E6E6"/>
<path opacity="0.2" d="M335.02 138.61L355.48 125.54L375.95 138.61V289.19H335.02V138.61Z" fill="#E0E0E0"/>
<path opacity="0.6" d="M335.02 138.61L355.48 125.54L375.95 138.61V228.88H335.02V138.61Z" fill="#E0E0E0"/>
<path d="M355.48 125.54L375.95 138.6H335.02L355.48 125.54Z" fill="#E0E0E0"/>
<path opacity="0.3" d="M328.83 295.74H382.14V289.19H328.83V295.74Z" fill="#E0E0E0"/>
<path opacity="0.2" d="M348.76 343.45H362.22V295.75H348.76V343.45Z" fill="#E0E0E0"/>
<path opacity="0.1" d="M348.76 289.2H362.22V241.5H348.76V289.2Z" fill="#E0E0E0"/>
<path opacity="0.4" d="M335.02 241.5H375.95V228.89H335.02V241.5Z" fill="#E0E0E0"/>
<path opacity="0.4" d="M335.02 236.78H375.95V233.59H335.02V236.78Z" fill="#E0E0E0"/>
<path opacity="0.2" d="M348.76 300.73H362.22V295.75H348.76V300.73Z" fill="#E0E0E0"/>
<path opacity="0.3" d="M337.9 347.4H373.08V343.45H337.9V347.4Z" fill="#E0E0E0"/>
<path d="M364.36 161.26H375.94V157.05H364.36V161.26Z" fill="#E0E0E0"/>
<path d="M364.36 183.15H375.94V178.94H364.36V183.15Z" fill="#E0E0E0"/>
<path d="M364.36 205.05H375.94V200.84H364.36V205.05Z" fill="#E0E0E0"/>
<path d="M364.36 226.96H375.94V222.75H364.36V226.96Z" fill="#E0E0E0"/>
<path d="M364.36 248.86H375.94V244.65H364.36V248.86Z" fill="#E0E0E0"/>
<path d="M364.36 270.76H375.94V266.55H364.36V270.76Z" fill="#E0E0E0"/>
<path d="M353.06 130.47H357.91V118.62H353.06V130.47Z" fill="#E0E0E0"/>
<path d="M351.85 122.81H359.12V110.96H351.85V122.81Z" fill="#E0E0E0"/>
<path d="M355.48 61.12L356.36 107.52H354.61L355.48 61.12Z" fill="#E0E0E0"/>
<path d="M196.37 158.14H198.72V148.31H196.37V158.14Z" fill="#E6E6E6"/>
<path opacity="0.2" d="M180.57 174.11L197.55 163.26L214.53 174.11V299.09H180.57V174.11Z" fill="#E0E0E0"/>
<path opacity="0.6" d="M180.57 174.11L197.55 163.26L214.53 174.11V249.04H180.57V174.11Z" fill="#E0E0E0"/>
<path d="M197.55 163.26L214.53 174.11H180.57L197.55 163.26Z" fill="#E0E0E0"/>
<path opacity="0.3" d="M175.42 304.53H219.67V299.09H175.42V304.53Z" fill="#E0E0E0"/>
<path opacity="0.2" d="M191.97 344.12H203.14V304.53H191.97V344.12Z" fill="#E0E0E0"/>
<path opacity="0.1" d="M191.97 299.09H203.14V259.5H191.97V299.09Z" fill="#E0E0E0"/>
<path opacity="0.4" d="M180.56 259.5H214.53V249.03H180.56V259.5Z" fill="#E0E0E0"/>
<path opacity="0.4" d="M180.56 255.59H214.53V252.95H180.56V255.59Z" fill="#E0E0E0"/>
<path opacity="0.2" d="M191.97 308.67H203.14V304.54H191.97V308.67Z" fill="#E0E0E0"/>
<path opacity="0.3" d="M182.95 347.4H212.15V344.12H182.95V347.4Z" fill="#E0E0E0"/>
<path d="M204.92 192.91H214.53V189.42H204.92V192.91Z" fill="#E0E0E0"/>
<path d="M204.92 211.08H214.53V207.59H204.92V211.08Z" fill="#E0E0E0"/>
<path d="M204.92 229.26H214.53V225.77H204.92V229.26Z" fill="#E0E0E0"/>
<path d="M204.92 247.43H214.53V243.94H204.92V247.43Z" fill="#E0E0E0"/>
<path d="M204.92 265.61H214.53V262.12H204.92V265.61Z" fill="#E0E0E0"/>
<path d="M204.92 283.79H214.53V280.3H204.92V283.79Z" fill="#E0E0E0"/>
<path d="M195.54 167.36H199.56V157.53H195.54V167.36Z" fill="#E0E0E0"/>
<path d="M194.54 160.99H200.57V151.16H194.54V160.99Z" fill="#E0E0E0"/>
<path d="M197.55 109.79L198.28 148.31H196.82L197.55 109.79Z" fill="#E0E0E0"/>
<path d="M94.48 120.76H98.52V106.58H94.48V120.76Z" fill="#E6E6E6"/>
<path opacity="0.2" d="M67.26 143.79L96.5 128.15L125.73 143.79V298.48H67.26V143.79Z" fill="#E0E0E0"/>
<path opacity="0.6" d="M67.26 143.79L96.5 128.15L125.73 143.79V251.88H67.26V143.79Z" fill="#E0E0E0"/>
<path d="M96.5 128.15L125.73 143.79H67.26L96.5 128.15Z" fill="#E0E0E0"/>
<path opacity="0.3" d="M58.42 306.32H134.58V298.47H58.42V306.32Z" fill="#E0E0E0"/>
<path opacity="0.2" d="M86.89 342.67H106.12V306.32H86.89V342.67Z" fill="#E0E0E0"/>
<path opacity="0.1" d="M86.89 298.48H106.12V266.98H86.89V298.48Z" fill="#E0E0E0"/>
<path opacity="0.4" d="M67.27 266.98H125.74V251.88H67.27V266.98Z" fill="#E0E0E0"/>
<path opacity="0.4" d="M67.27 261.34H125.74V257.53H67.27V261.34Z" fill="#E0E0E0"/>
<path opacity="0.2" d="M86.89 312.29H106.12V306.33H86.89V312.29Z" fill="#E0E0E0"/>
<path opacity="0.3" d="M71.37 347.4H121.63V342.67H71.37V347.4Z" fill="#E0E0E0"/>
<path d="M109.2 170.92H125.74V165.88H109.2V170.92Z" fill="#E0E0E0"/>
<path d="M109.2 197.14H125.74V192.1H109.2V197.14Z" fill="#E0E0E0"/>
<path d="M109.2 223.35H125.74V218.31H109.2V223.35Z" fill="#E0E0E0"/>
<path d="M109.2 249.57H125.74V244.53H109.2V249.57Z" fill="#E0E0E0"/>
<path d="M109.2 275.79H125.74V270.75H109.2V275.79Z" fill="#E0E0E0"/>
<path d="M93.04 134.05H99.96V119.87H93.04V134.05Z" fill="#E0E0E0"/>
<path d="M94.17 124.87H98.82C100.405 124.87 101.69 123.585 101.69 122V113.56C101.69 111.975 100.405 110.69 98.82 110.69H94.17C92.5849 110.69 91.3 111.975 91.3 113.56V122C91.3 123.585 92.5849 124.87 94.17 124.87Z" fill="#E0E0E0"/>
<path d="M96.5 61.12L97.75 106.58H95.25L96.5 61.12Z" fill="#E0E0E0"/>
<path d="M319.28 321.78H301.53V316.89H307.05V220.42L323.12 211.82V208.47C322.799 208.333 322.525 208.104 322.333 207.812C322.141 207.521 322.039 207.179 322.04 206.83V201.57C322.04 201.095 322.229 200.64 322.564 200.304C322.9 199.969 323.355 199.78 323.83 199.78H324V197.21H324.48L325.26 168.86L326.04 197.21H326.52V199.78H326.71C327.185 199.78 327.64 199.969 327.976 200.304C328.311 200.64 328.5 201.095 328.5 201.57V206.83C328.501 207.179 328.399 207.521 328.207 207.812C328.015 208.104 327.741 208.333 327.42 208.47V211.82L343.49 220.42V316.89H349V321.78H331.28V344.45H341V347.4H309.61V344.45H319.28V321.78V321.78Z" fill="#F5F5F5"/>
<path d="M422.28 329.77H410.06V326.4H413.86V260L424.93 254.08V251.78C424.708 251.686 424.519 251.529 424.385 251.328C424.252 251.127 424.18 250.891 424.18 250.65V247C424.179 246.838 424.21 246.677 424.271 246.526C424.332 246.376 424.422 246.239 424.537 246.124C424.651 246.009 424.787 245.917 424.937 245.855C425.087 245.792 425.248 245.76 425.41 245.76H425.54V244H425.87L426.41 224.49L427 244H427.33V245.76H427.46C427.622 245.76 427.783 245.792 427.933 245.855C428.083 245.917 428.219 246.009 428.333 246.124C428.448 246.239 428.538 246.376 428.599 246.526C428.66 246.677 428.691 246.838 428.69 247V250.62C428.689 250.86 428.619 251.094 428.487 251.295C428.356 251.495 428.169 251.653 427.95 251.75V254.05L439 260V326.4H442.8V329.77H430.54V345.37H437.2V347.37H415.62V345.37H422.28V329.77V329.77Z" fill="#F5F5F5"/>
<path d="M153.61 323.66H170.06V319.12H164.94V229.72L150.05 221.72V218.62C150.348 218.491 150.602 218.277 150.78 218.005C150.957 217.733 151.051 217.415 151.05 217.09V212.22C151.05 211.78 150.875 211.358 150.564 211.046C150.252 210.735 149.83 210.56 149.39 210.56H149.21V208.18H148.77L148.05 181.91L147.32 208.18H146.88V210.56H146.71C146.27 210.56 145.848 210.735 145.536 211.046C145.225 211.358 145.05 211.78 145.05 212.22V217.09C145.049 217.415 145.143 217.733 145.32 218.005C145.498 218.277 145.752 218.491 146.05 218.62V221.72L131.15 229.72V319.12H126V323.66H142.45V344.66H133.45V347.39H162.45V344.66H153.45V323.66H153.61Z" fill="#F5F5F5"/>
<path d="M278.51 319.59H298.75V314.27H292.46V209.54L274.13 200.2V196.57C274.489 196.429 274.797 196.184 275.016 195.867C275.235 195.55 275.355 195.175 275.36 194.79V189.07C275.344 188.55 275.127 188.057 274.753 187.694C274.38 187.332 273.88 187.13 273.36 187.13H273.15V184.34H272.6L271.71 153.56L270.82 184.34H270.27V187.13H270C269.48 187.13 268.98 187.332 268.607 187.694C268.233 188.057 268.016 188.55 268 189.07V194.79C268.013 195.173 268.135 195.545 268.354 195.861C268.572 196.176 268.876 196.422 269.23 196.57V200.2L250.9 209.54V314.27H244.61V319.59H264.85V344.2H253.85V347.4H289.59V344.2H278.59V319.59H278.51Z" fill="#FAFAFA"/>
<path d="M250 392.56C357.082 392.56 443.89 387.492 443.89 381.24C443.89 374.988 357.082 369.92 250 369.92C142.918 369.92 56.11 374.988 56.11 381.24C56.11 387.492 142.918 392.56 250 392.56Z" fill="#F5F5F5"/>
<path d="M272.84 198.56C267.51 200.8 262.33 195.39 260.72 204.06C259.11 212.73 254.83 212.32 252.17 216.25C249.51 220.18 248.39 225.89 256.11 229.17C263.83 232.45 280.28 239.63 280.5 230.84C280.72 222.05 275.61 220.61 281.78 217.33C287.95 214.05 284 205.9 281.44 205.33C282.94 198.78 277.46 196.61 272.84 198.56Z" fill="#263238"/>
<path d="M227.65 195.49L229.26 196.14C229.56 196.259 229.826 196.448 230.037 196.692C230.247 196.935 230.396 197.226 230.47 197.54L231.18 200.54C231.321 201.123 231.321 201.732 231.178 202.315C231.035 202.898 230.755 203.438 230.36 203.89L229.86 204.46C227.12 203.57 224.81 200.58 224.81 200.58L224.06 199.8C223.902 199.644 223.776 199.458 223.691 199.253C223.605 199.047 223.561 198.827 223.561 198.605C223.561 198.383 223.605 198.163 223.691 197.958C223.776 197.752 223.902 197.566 224.06 197.41L225.58 195.9C225.853 195.646 226.191 195.472 226.557 195.4C226.922 195.327 227.301 195.359 227.65 195.49V195.49Z" fill="#CE7A63"/>
<path d="M259 235.2C255.27 233.87 251.72 232.53 248.09 231.06C246.28 230.31 244.48 229.52 242.65 228.67C241.73 228.24 240.82 227.79 239.88 227.27C238.864 226.725 237.886 226.113 236.95 225.44C236.69 225.24 236.44 225.05 236.15 224.79L235.72 224.42L235.26 223.95L235.04 223.71L234.9 223.53L234.62 223.16C234.43 222.92 234.23 222.66 234.07 222.43L233.16 221.07L232.35 219.75C231.35 218 230.41 216.27 229.52 214.54C227.73 211.09 226.1 207.69 224.38 204.21L232.02 200.76C233.44 204.11 235.08 207.48 236.81 210.68C237.69 212.27 238.6 213.84 239.54 215.29C240.02 216.01 240.48 216.7 240.96 217.29C241.08 217.44 241.18 217.54 241.29 217.66L241.45 217.84L241.53 217.93L241.65 218.02L241.96 218.23C243.325 219.015 244.753 219.684 246.23 220.23C247.84 220.88 249.56 221.44 251.29 221.98C254.73 223.06 258.35 223.98 261.85 224.76L259 235.2Z" fill="#407BFF"/>
<path d="M258.78 374.16C263.09 374.16 263.78 374.09 266.24 374.01C268.32 373.94 268.81 374.19 270.48 374.16C271.87 374.16 271.82 372.8 271.39 371.26C271.18 370.49 270.84 369.55 270.55 368.31H264C263.11 370 260.29 371.31 257.87 371.6C255.45 371.89 257.06 374.16 258.78 374.16Z" fill="#407BFF"/>
<path d="M217.48 371.68C221.63 372.55 223.08 372.58 225.48 372.99C227.48 373.34 227.48 373.72 229.48 374.19C230.82 374.5 231.42 373.05 231.24 371.82C231.062 370.736 230.968 369.639 230.96 368.54L225.6 366.61C224.492 367.596 223.187 368.337 221.772 368.783C220.357 369.23 218.864 369.372 217.39 369.2C215 368.89 215.82 371.33 217.48 371.68Z" fill="#407BFF"/>
<path d="M243.41 259.93C243.41 259.93 231 288.15 227.91 307C226.3 323.73 225.46 366.17 225.46 366.17C225.24 367.06 229.97 368.69 230.97 368.53C230.97 368.53 241.47 328.25 240.45 307.76C259.14 282.08 263.73 261.46 263.73 261.46L243.41 259.93Z" fill="#263238"/>
<path opacity="0.2" d="M253.09 273.61C250.31 276.9 248.99 288.33 248.43 295.8C251.753 290.388 254.742 284.777 257.38 279C256.88 276.15 255.51 274.1 253.09 273.61Z" fill="black"/>
<path d="M249.47 260.39C249.47 260.39 248.7 295.1 251.72 312.2C254.89 330.15 264.72 356.52 264 368.31C265 368.89 268.56 368.93 270.55 368.31C270.55 368.31 273.94 328.6 263.74 311.52C265.95 294.42 271.83 272.28 266.61 261.7L249.47 260.39Z" fill="#263238"/>
<path d="M263.51 365.85C263.489 366.661 263.412 367.47 263.28 368.27C263.266 368.337 263.265 368.407 263.279 368.474C263.292 368.541 263.32 368.605 263.359 368.662C263.399 368.718 263.449 368.765 263.508 368.801C263.567 368.837 263.632 368.861 263.7 368.87C266.039 369.079 268.396 368.955 270.7 368.5C270.802 368.48 270.895 368.429 270.967 368.354C271.039 368.279 271.085 368.183 271.1 368.08L271.46 365.82C271.472 365.747 271.467 365.673 271.447 365.602C271.427 365.531 271.391 365.465 271.342 365.41C271.293 365.354 271.233 365.31 271.165 365.281C271.097 365.252 271.024 365.238 270.95 365.24L264.03 365.37C263.964 365.366 263.898 365.375 263.836 365.397C263.773 365.42 263.716 365.454 263.668 365.499C263.619 365.544 263.58 365.598 263.553 365.658C263.526 365.719 263.511 365.784 263.51 365.85V365.85Z" fill="#263238"/>
<path opacity="0.1" d="M263.51 365.85C263.489 366.661 263.412 367.47 263.28 368.27C263.266 368.337 263.265 368.407 263.279 368.474C263.292 368.541 263.32 368.605 263.359 368.662C263.399 368.718 263.449 368.765 263.508 368.801C263.567 368.837 263.632 368.861 263.7 368.87C266.039 369.079 268.396 368.955 270.7 368.5C270.802 368.48 270.895 368.429 270.967 368.354C271.039 368.279 271.085 368.183 271.1 368.08L271.46 365.82C271.472 365.747 271.467 365.673 271.447 365.602C271.427 365.531 271.391 365.465 271.342 365.41C271.293 365.354 271.233 365.31 271.165 365.281C271.097 365.252 271.024 365.238 270.95 365.24L264.03 365.37C263.964 365.366 263.898 365.375 263.836 365.397C263.773 365.42 263.716 365.454 263.668 365.499C263.619 365.544 263.58 365.598 263.553 365.658C263.526 365.719 263.511 365.784 263.51 365.85V365.85Z" fill="white"/>
<path d="M225 364.63C224.85 365.25 224.59 366.35 224.36 367.15C224.326 367.277 224.342 367.413 224.405 367.529C224.468 367.644 224.574 367.731 224.7 367.77C226.794 368.275 228.929 368.589 231.08 368.71C231.185 368.718 231.291 368.692 231.38 368.636C231.47 368.581 231.54 368.498 231.58 368.4L232.47 366.25C232.498 366.181 232.51 366.106 232.506 366.032C232.502 365.957 232.482 365.884 232.446 365.819C232.411 365.753 232.362 365.695 232.302 365.651C232.242 365.606 232.173 365.575 232.1 365.56L225.58 364.26C225.454 364.236 225.324 364.261 225.216 364.329C225.108 364.398 225.031 364.506 225 364.63Z" fill="#263238"/>
<path opacity="0.1" d="M225 364.63C224.85 365.25 224.59 366.35 224.36 367.15C224.326 367.277 224.342 367.413 224.405 367.529C224.468 367.644 224.574 367.731 224.7 367.77C226.794 368.275 228.929 368.589 231.08 368.71C231.185 368.718 231.291 368.692 231.38 368.636C231.47 368.581 231.54 368.498 231.58 368.4L232.47 366.25C232.498 366.181 232.51 366.106 232.506 366.032C232.502 365.957 232.482 365.884 232.446 365.819C232.411 365.753 232.362 365.695 232.302 365.651C232.242 365.606 232.173 365.575 232.1 365.56L225.58 364.26C225.454 364.236 225.324 364.261 225.216 364.329C225.108 364.398 225.031 364.506 225 364.63Z" fill="white"/>
<path d="M248 230.52C247.42 232.74 246.49 235.17 245.37 240.52C244.174 246.924 243.505 253.416 243.37 259.93C246.37 262.63 256.47 262.17 266.57 261.7C266.57 255.13 269.29 249.07 276.63 235.61C277.043 234.911 277.293 234.128 277.362 233.32C277.431 232.511 277.317 231.698 277.029 230.939C276.741 230.18 276.286 229.496 275.697 228.937C275.109 228.378 274.402 227.959 273.63 227.71C272.75 227.41 271.82 227.12 270.85 226.85C267.477 225.824 264.035 225.042 260.55 224.51C259.41 224.36 258.22 224.24 257.07 224.14C255.054 223.99 253.047 224.544 251.394 225.707C249.74 226.871 248.54 228.572 248 230.52V230.52Z" fill="#407BFF"/>
<path opacity="0.2" d="M271 235.66C270.61 238.97 271 242.83 272 244.44C272.83 242.8 273.76 241.01 274.81 239.06L271 235.66Z" fill="black"/>
<path d="M266.18 241.9L259.58 239.9C259.514 239.881 259.453 239.848 259.4 239.805C259.347 239.761 259.304 239.708 259.272 239.647C259.24 239.586 259.221 239.52 259.216 239.452C259.21 239.384 259.218 239.315 259.24 239.25L260.31 236.02C260.356 235.889 260.449 235.781 260.571 235.716C260.694 235.651 260.836 235.634 260.97 235.67L267.57 237.67C267.636 237.689 267.697 237.722 267.75 237.765C267.803 237.808 267.846 237.862 267.878 237.923C267.91 237.983 267.929 238.05 267.934 238.118C267.94 238.186 267.932 238.255 267.91 238.32L266.85 241.54C266.806 241.675 266.712 241.787 266.587 241.854C266.462 241.922 266.317 241.938 266.18 241.9Z" fill="white"/>
<path d="M264.7 237.38L263.24 236.92C263.18 236.92 263.17 236.79 263.24 236.67L263.79 235.29C263.84 235.17 263.93 235.09 263.99 235.11L265.44 235.56C265.5 235.56 265.52 235.69 265.44 235.81L264.88 237.19C264.85 237.31 264.76 237.39 264.7 237.38Z" fill="#263238"/>
<path d="M272.84 215.09C271.19 218.2 268.71 224.02 270.36 226.72C270.36 226.72 266.07 226.72 258.9 230.84C257.59 227.64 260.06 224.38 260.06 224.38C264.06 224.38 264.76 221.64 264.89 218.96L272.84 215.09Z" fill="#CE7A63"/>
<path opacity="0.2" d="M269.6 216.67L264.89 219C264.874 219.629 264.797 220.256 264.66 220.87C266.13 220.99 268.54 219.87 269.14 218.49C269.403 217.916 269.559 217.3 269.6 216.67V216.67Z" fill="black"/>
<path d="M277.62 211C275.21 215.58 274.29 217.56 270.62 219C265.09 221.14 259.44 217.39 260.31 212.24C261.09 207.6 264.91 200.9 270.79 200.94C276.67 200.98 280 206.47 277.62 211Z" fill="#CE7A63"/>
<path d="M279.69 205.09C274.756 205.209 269.909 203.778 265.83 201C270 199.15 277.47 199.3 279.69 205.09Z" fill="#263238"/>
<path d="M269.69 207.75C269.52 208.17 269.16 208.42 268.89 208.31C268.62 208.2 268.54 207.78 268.72 207.37C268.9 206.96 269.25 206.71 269.52 206.81C269.79 206.91 269.87 207.34 269.69 207.75Z" fill="#263238"/>
<path d="M265.05 205.91C264.87 206.32 264.51 206.57 264.25 206.46C263.99 206.35 263.9 205.94 264.08 205.52C264.26 205.1 264.61 204.86 264.88 204.97C265.15 205.08 265.22 205.5 265.05 205.91Z" fill="#263238"/>
<path d="M265 205L264.13 204.32C264.13 204.32 264.3 205.34 265 205Z" fill="#263238"/>
<path d="M269.63 206.88L268.77 206.2C268.77 206.2 268.94 207.18 269.63 206.88Z" fill="#263238"/>
<path d="M265.29 207.37C264.416 208.157 263.445 208.829 262.4 209.37C262.68 210.12 263.74 210.3 263.74 210.3L265.29 207.37Z" fill="#BA4D3C"/>
<path d="M264.41 212.34C264.17 212.243 263.939 212.126 263.72 211.99C263.696 211.964 263.683 211.93 263.683 211.895C263.683 211.86 263.696 211.826 263.72 211.8C263.748 211.777 263.784 211.765 263.82 211.765C263.856 211.765 263.892 211.777 263.92 211.8C264.407 212.121 264.962 212.326 265.54 212.401C266.119 212.475 266.707 212.417 267.26 212.23C267.276 212.222 267.294 212.217 267.312 212.216C267.33 212.215 267.349 212.218 267.366 212.225C267.383 212.232 267.398 212.242 267.411 212.255C267.424 212.268 267.434 212.283 267.44 212.3C267.448 212.316 267.452 212.334 267.452 212.352C267.453 212.37 267.449 212.388 267.441 212.404C267.433 212.421 267.422 212.435 267.408 212.446C267.394 212.458 267.378 212.466 267.36 212.47C266.396 212.804 265.341 212.758 264.41 212.34V212.34Z" fill="#263238"/>
<path d="M276.6 215.89C276.122 216.129 275.599 216.265 275.066 216.291C274.532 216.317 273.999 216.232 273.5 216.04C272.29 215.51 272.77 214.04 274.01 213.14C275.25 212.24 277.1 211.66 277.88 212.69C278.66 213.72 277.9 215.28 276.6 215.89Z" fill="#CE7A63"/>
<path d="M274.86 204.11C272.03 207.72 275.67 211.53 272.03 214.61C268.39 217.69 258.03 230.44 271.79 227.1C274.58 224 282.08 213.78 281.28 210.47C280.48 207.16 279.92 202.36 274.86 204.11Z" fill="#263238"/>
<path d="M272.05 207.45C272.018 207.432 271.99 207.408 271.967 207.378C271.945 207.349 271.929 207.316 271.92 207.28C271.86 206.954 271.72 206.648 271.512 206.39C271.304 206.131 271.035 205.929 270.73 205.8C270.697 205.789 270.666 205.771 270.64 205.748C270.614 205.724 270.593 205.695 270.579 205.663C270.565 205.631 270.558 205.597 270.558 205.562C270.558 205.527 270.566 205.492 270.58 205.46C270.609 205.393 270.662 205.339 270.729 205.31C270.795 205.28 270.871 205.276 270.94 205.3C271.33 205.458 271.674 205.711 271.942 206.035C272.209 206.36 272.39 206.747 272.47 207.16C272.476 207.212 272.467 207.265 272.445 207.312C272.424 207.36 272.39 207.401 272.346 207.43C272.303 207.46 272.253 207.478 272.201 207.481C272.149 207.485 272.097 207.474 272.05 207.45V207.45Z" fill="#263238"/>
<path d="M264.5 203.68C264.436 203.663 264.379 203.624 264.34 203.57C264.321 203.54 264.308 203.505 264.303 203.47C264.297 203.434 264.299 203.398 264.309 203.363C264.318 203.328 264.335 203.296 264.357 203.268C264.38 203.24 264.408 203.217 264.44 203.2C264.802 202.949 265.216 202.786 265.652 202.721C266.087 202.657 266.531 202.694 266.95 202.83C266.983 202.843 267.013 202.862 267.037 202.888C267.062 202.913 267.081 202.943 267.093 202.976C267.106 203.009 267.111 203.044 267.109 203.079C267.106 203.115 267.097 203.149 267.08 203.18C267.047 203.246 266.992 203.298 266.924 203.326C266.855 203.353 266.779 203.355 266.71 203.33C266.376 203.224 266.022 203.195 265.675 203.247C265.328 203.299 264.998 203.43 264.71 203.63C264.649 203.672 264.574 203.69 264.5 203.68V203.68Z" fill="#263238"/>
<path opacity="0.5" d="M306.8 354.69L294.94 361.04L269.99 314.41L267.08 308.97L288.82 297.33L285 290.18L278.24 293.8L247.62 236.59L245.75 233.11L190.26 129.42L163.84 127.39L161.34 122.71L162.66 122L155.74 109.07L153.31 110.37L151.31 106.62L149.77 107.45L150.72 106.94L111.53 36L148.81 107.96L148.22 108.28L150.23 112.02L147.81 113.32L154.73 126.25L156.05 125.54L158.55 130.22L145.59 153.33L233.56 317.7L244.81 311.68L226.81 321.32L230.63 328.48L252.38 316.83L280.25 368.9L287.6 364.97L268.4 375.25L270.7 379.56L309.1 359L306.8 354.69Z" fill="white"/>
<path d="M151.312 106.601L148.226 108.253L155.15 121.186L158.235 119.535L151.312 106.601Z" fill="#263238"/>
<path opacity="0.2" d="M190.26 129.42L160.29 127.12L145.59 153.33L233.56 317.7L278.24 293.8L190.26 129.42Z" fill="#407BFF"/>
<path opacity="0.6" d="M190.26 129.42L160.29 127.12L145.59 153.33L198.33 251.87L243 227.97L190.26 129.42Z" fill="#407BFF"/>
<path d="M160.29 127.12L145.59 153.33L190.26 129.42L160.29 127.12Z" fill="#407BFF"/>
<path opacity="0.3" d="M285.012 290.155L226.824 321.303L230.652 328.453L288.839 297.305L285.012 290.155Z" fill="#407BFF"/>
<path opacity="0.2" d="M267.09 308.948L252.393 316.815L280.261 368.875L294.958 361.008L267.09 308.948Z" fill="#407BFF"/>
<path opacity="0.1" d="M235.384 249.728L220.687 257.595L248.555 309.655L263.252 301.788L235.384 249.728Z" fill="#407BFF"/>
<path opacity="0.4" d="M242.077 227.986L197.488 251.801L204.824 265.537L249.414 241.722L242.077 227.986Z" fill="#407BFF"/>
<path opacity="0.4" d="M244.817 233.116L200.228 256.931L202.079 260.398L246.669 236.583L244.817 233.116Z" fill="#407BFF"/>
<path opacity="0.2" d="M267.094 308.947L252.397 316.814L255.309 322.254L270.006 314.386L267.094 308.947Z" fill="#407BFF"/>
<path opacity="0.3" d="M306.807 354.661L268.403 375.219L270.711 379.53L309.114 358.972L306.807 354.661Z" fill="#407BFF"/>
<path d="M169.008 166.683L156.374 173.446L158.833 178.039L171.467 171.277L169.008 166.683Z" fill="#407BFF"/>
<path d="M181.798 190.597L169.164 197.36L171.623 201.953L184.257 195.19L181.798 190.597Z" fill="#407BFF"/>
<path d="M194.593 214.492L181.96 221.255L184.418 225.848L197.052 219.085L194.593 214.492Z" fill="#407BFF"/>
<path d="M207.388 238.382L194.754 245.145L197.213 249.738L209.846 242.976L207.388 238.382Z" fill="#407BFF"/>
<path d="M220.183 262.287L207.549 269.05L210.008 273.643L222.642 266.881L220.183 262.287Z" fill="#407BFF"/>
<path d="M232.973 286.201L220.339 292.964L222.798 297.557L235.432 290.794L232.973 286.201Z" fill="#407BFF"/>
<path d="M158.911 118.153L153.621 120.984L160.544 133.918L165.834 131.086L158.911 118.153Z" fill="#407BFF"/>
<path d="M155.74 109.066L147.805 113.313L154.728 126.247L162.663 121.999L155.74 109.066Z" fill="#407BFF"/>
<path d="M111.53 36L148.81 107.96L150.72 106.94L111.53 36Z" fill="#407BFF"/>
<path d="M256.55 260.05L257.92 258.98C258.173 258.781 258.471 258.646 258.788 258.587C259.105 258.528 259.432 258.546 259.74 258.64L262.66 259.5C263.237 259.672 263.764 259.979 264.197 260.397C264.631 260.814 264.957 261.33 265.15 261.9L265.39 262.61C263.24 264.54 259.5 265.04 259.5 265.04L258.45 265.3C258.236 265.359 258.012 265.375 257.792 265.347C257.572 265.319 257.359 265.247 257.167 265.137C256.974 265.026 256.806 264.878 256.671 264.702C256.536 264.526 256.437 264.325 256.38 264.11L255.84 262.03C255.752 261.667 255.772 261.285 255.898 260.934C256.024 260.582 256.251 260.274 256.55 260.05Z" fill="#CE7A63"/>
<path d="M276.25 229.47C276.84 230.37 277.25 231.08 277.73 231.89C278.21 232.7 278.61 233.48 279.03 234.29C279.874 235.913 280.625 237.582 281.28 239.29C281.978 241.074 282.524 242.914 282.91 244.79C283.112 245.78 283.253 246.782 283.33 247.79C283.33 248.32 283.39 248.85 283.33 249.39V249.84C283.321 250.142 283.291 250.442 283.24 250.74C283.148 251.244 283.004 251.736 282.81 252.21C282.246 253.451 281.444 254.568 280.45 255.5C279.726 256.222 278.951 256.89 278.13 257.5C276.656 258.572 275.12 259.557 273.53 260.45C270.489 262.15 267.358 263.682 264.15 265.04L261.28 258.67C264.133 257.248 266.907 255.673 269.59 253.95C270.862 253.134 272.084 252.242 273.25 251.28C273.75 250.866 274.218 250.414 274.65 249.93C275.03 249.54 275.27 249.08 275.18 249.17C275.131 249.257 275.097 249.352 275.08 249.45C275.073 249.54 275.073 249.63 275.08 249.72C275.08 249.72 275.08 249.6 275.08 249.55C275.08 249.26 275.02 248.96 274.98 248.66C274.879 248.019 274.739 247.384 274.56 246.76C274.157 245.387 273.642 244.049 273.02 242.76C272.374 241.409 271.656 240.094 270.87 238.82C270.47 238.17 270.05 237.53 269.63 236.91C269.21 236.29 268.73 235.62 268.36 235.15L276.25 229.47Z" fill="#407BFF"/>
<path d="M420.2 214.07C420.2 214.07 417.31 216.07 414.63 215.33C418.55 212.5 416.16 203.48 415.73 202.41C415.093 202.808 414.558 203.35 414.169 203.993C413.779 204.635 413.547 205.361 413.49 206.11C413.432 204.823 412.902 203.602 412.003 202.68C411.103 201.758 409.895 201.199 408.61 201.11C406.389 200.831 404.267 200.023 402.423 198.755C400.579 197.486 399.065 195.794 398.01 193.82C397.526 194.779 397.24 195.826 397.17 196.898C397.1 197.97 397.246 199.046 397.6 200.06C394.29 200.35 390.6 200.27 390.12 198.78C390.05 201.78 392.6 204.33 390.43 204.27C388.26 204.21 388.65 202.78 388.65 202.78C388.65 202.78 386.44 204.78 388.3 208.25C390.16 211.72 386.71 214.64 389.52 218.25C400.7 232 408.84 225 408.84 225C409.083 225.381 409.212 225.823 409.212 226.275C409.212 226.727 409.083 227.169 408.84 227.55C408.84 227.55 416.04 224.78 411.84 221.38C419.47 221.44 420.2 214.07 420.2 214.07Z" fill="#E0E0E0"/>
<path d="M335.07 358.24L343.86 360.8L340.62 371.1L333.27 368.98L335.07 358.24Z" fill="#7F3E3B"/>
<path opacity="0.2" d="M335.07 358.24L343.87 360.8L342.05 366.57L334.06 364.26L335.07 358.24Z" fill="black"/>
<path d="M359.7 321C367.64 308.79 377.83 296.56 377.04 282.67L352.42 275.89C352.42 275.89 343.07 302.54 340.81 315.14C338.45 328.24 333.88 361.79 333.88 361.79L343.69 365.47C343.69 365.47 356.55 335.56 359.7 321Z" fill="#263238"/>
<path d="M341.72 373.78L339.38 373.15L339.03 372.21L337.85 372.74L324.85 369.22C324.968 368.285 325.338 367.401 325.92 366.66C325.92 366.66 330.63 367.15 332.71 366.42C332.887 366.357 333.075 366.331 333.262 366.343C333.45 366.355 333.632 366.405 333.8 366.49C335.29 367.22 339.28 369.02 341.8 368.75C341.86 368.749 341.92 368.762 341.975 368.786C342.03 368.811 342.079 368.848 342.118 368.894C342.157 368.939 342.186 368.993 342.201 369.052C342.217 369.11 342.22 369.171 342.21 369.23C341.925 370.731 341.761 372.253 341.72 373.78V373.78Z" fill="#263238"/>
<path d="M372.88 366.69L382.02 367.24L381.88 378.04L374.25 377.6L372.88 366.69Z" fill="#7F3E3B"/>
<path opacity="0.2" d="M372.88 366.7L382.03 367.24L381.95 373.29L373.64 372.81L372.88 366.7Z" fill="black"/>
<path d="M386.43 328.79C389.57 315.26 398.18 295.63 395.37 288.26L368 280.16C368 280.16 365.25 313.61 365.94 326.72C366.66 340.35 372.71 370.9 372.71 370.9L382.6 371.42C382.6 371.42 387.35 345 386.43 328.79Z" fill="#263238"/>
<path d="M338.43 237.17L338.62 241.02C337.36 244.88 332.69 242.41 332.69 242.41L329.96 242.13C329.481 242.06 329.044 241.819 328.73 241.451C328.415 241.083 328.245 240.614 328.25 240.13L328.1 237.44C328.037 236.887 328.192 236.332 328.532 235.891C328.871 235.451 329.369 235.16 329.92 235.08L332.3 234.93C332.987 234.895 333.673 235.025 334.3 235.31L338.43 237.17Z" fill="#7F3E3B"/>
<path d="M383.39 240C381.57 241.32 379.74 242.56 377.91 243.83C376.08 245.1 374.21 246.31 372.36 247.55C368.65 250.03 364.85 252.36 360.97 254.73L359.42 255.68L358.09 255.79C356.473 255.927 354.845 255.819 353.26 255.47C352.036 255.217 350.83 254.883 349.65 254.47C347.561 253.705 345.527 252.799 343.56 251.76C341.68 250.76 339.88 249.69 338.11 248.6C336.34 247.51 334.7 246.26 333 245L338 236.69C339.64 237.39 341.44 238.17 343.17 238.84C344.9 239.51 346.64 240.21 348.36 240.78C349.997 241.354 351.667 241.831 353.36 242.21C354.058 242.373 354.766 242.487 355.48 242.55C355.814 242.601 356.155 242.58 356.48 242.49L353.6 243.55C357.09 241.04 360.54 238.33 364.07 235.73C367.6 233.13 371.07 230.45 374.62 227.89L383.39 240Z" fill="#407BFF"/>
<g opacity="0.2">
<path opacity="0.2" d="M383.39 240C381.57 241.32 379.74 242.56 377.91 243.83C376.08 245.1 374.21 246.31 372.36 247.55C368.65 250.03 364.85 252.36 360.97 254.73L359.42 255.68L358.09 255.79C356.473 255.927 354.845 255.819 353.26 255.47C352.036 255.217 350.83 254.883 349.65 254.47C347.561 253.705 345.527 252.799 343.56 251.76C341.68 250.76 339.88 249.69 338.11 248.6C336.34 247.51 334.7 246.26 333 245L338 236.69C339.64 237.39 341.44 238.17 343.17 238.84C344.9 239.51 346.64 240.21 348.36 240.78C349.997 241.354 351.667 241.831 353.36 242.21C354.058 242.373 354.766 242.487 355.48 242.55C355.814 242.601 356.155 242.58 356.48 242.49L353.6 243.55C357.09 241.04 360.54 238.33 364.07 235.73C367.6 233.13 371.07 230.45 374.62 227.89L383.39 240Z" fill="white"/>
</g>
<path d="M382.37 225.39C390.756 226.833 398.956 229.201 406.82 232.45C407.887 232.922 408.847 233.607 409.641 234.463C410.435 235.318 411.046 236.327 411.437 237.426C411.828 238.526 411.991 239.693 411.916 240.858C411.841 242.023 411.529 243.16 411 244.2C402 262.39 397.54 286.08 396.12 289.77C396.12 289.77 356.02 291.17 350.74 276.87C354.63 252.63 368.4 235.37 374.47 228.28C375.426 227.158 376.656 226.303 378.04 225.796C379.424 225.29 380.916 225.15 382.37 225.39V225.39Z" fill="white"/>
<path d="M413.39 238.76C412.61 236.28 410.88 232.76 401.77 229.91C394.884 232.73 388.436 236.518 382.62 241.16C382.017 238.417 382.19 235.56 383.121 232.91C384.052 230.26 385.704 227.923 387.89 226.16C382.7 224.39 378.74 224.73 377.21 225.16C375.68 225.59 365.55 234.66 357.57 252.16C349.59 269.66 340 304.23 338 313.25C352.23 326.19 382.72 328.9 390.8 325.2C395.12 311.27 397.59 288.89 399.88 279.84C402.17 270.79 414.41 243.45 413.39 238.76Z" fill="#407BFF"/>
<path opacity="0.3" d="M413.39 238.76C412.61 236.28 410.88 232.76 401.77 229.91C394.884 232.73 388.436 236.518 382.62 241.16C382.017 238.417 382.19 235.56 383.121 232.91C384.052 230.26 385.704 227.923 387.89 226.16C382.7 224.39 378.74 224.73 377.21 225.16C375.68 225.59 365.55 234.66 357.57 252.16C349.59 269.66 340 304.23 338 313.25C352.23 326.19 382.72 328.9 390.8 325.2C395.12 311.27 397.59 288.89 399.88 279.84C402.17 270.79 414.41 243.45 413.39 238.76Z" fill="white"/>
<path d="M385.85 227.86C386.666 226.965 387.763 226.376 388.96 226.19C389.654 225.267 390.007 224.133 389.96 222.98L403.11 222.41C401.05 226.15 399.42 229.1 400.38 231.41C397.61 232.21 392.54 233.64 387.83 232.21C383.12 230.78 384.62 229.32 385.85 227.86Z" fill="#7F3E3B"/>
<path opacity="0.2" d="M389.92 223.38L399.15 225.31C395.48 227.58 390.87 227.55 389.24 225.78C389.666 225.05 389.9 224.225 389.92 223.38V223.38Z" fill="black"/>
<path d="M387.51 232.16L389.91 231.06L392.19 233.06C392.19 233.06 390.08 234.22 387.51 232.16Z" fill="#E0E0E0"/>
<path d="M407.1 216.89C404.16 222.13 402.05 225.63 397.82 226.4C389.4 227.93 387.08 223.17 388.4 217.14C389.58 211.71 394.19 204.05 400.51 204.5C401.909 204.599 403.26 205.052 404.437 205.817C405.613 206.582 406.576 207.632 407.234 208.871C407.893 210.109 408.226 211.495 408.203 212.898C408.179 214.3 407.8 215.674 407.1 216.89V216.89Z" fill="#7F3E3B"/>
<path opacity="0.2" d="M400.1 218.53C396.99 219.08 392.4 217.17 390.47 216.15C389.65 215.72 389.12 215.66 388.73 215.88C388.603 216.313 388.493 216.733 388.4 217.14C387.08 223.14 389.4 227.93 397.82 226.4C399.011 226.152 400.141 225.671 401.145 224.985C402.149 224.298 403.007 223.42 403.67 222.4C403.961 221.818 404.202 221.213 404.39 220.59C404.003 219.821 403.372 219.202 402.596 218.83C401.82 218.457 400.942 218.352 400.1 218.53V218.53Z" fill="#263238"/>
<path d="M392.09 218.94C391.789 218.765 391.502 218.568 391.23 218.35C391.213 218.334 391.199 218.315 391.19 218.293C391.18 218.272 391.175 218.248 391.175 218.225C391.175 218.202 391.18 218.178 391.19 218.157C391.199 218.135 391.213 218.116 391.23 218.1C391.248 218.082 391.269 218.068 391.292 218.058C391.315 218.049 391.34 218.044 391.365 218.044C391.39 218.044 391.415 218.049 391.438 218.058C391.461 218.068 391.482 218.082 391.5 218.1C392.11 218.602 392.824 218.963 393.59 219.155C394.356 219.347 395.155 219.365 395.93 219.21C395.978 219.194 396.03 219.198 396.075 219.22C396.12 219.243 396.154 219.282 396.17 219.33C396.179 219.378 396.17 219.427 396.144 219.468C396.118 219.509 396.077 219.538 396.03 219.55C394.686 219.834 393.285 219.617 392.09 218.94V218.94Z" fill="#263238"/>
<path d="M405.52 220.61C403.518 220.611 401.587 219.87 400.1 218.53C400.1 218.53 404.1 218.1 405.82 216.15C405.218 216.156 404.628 215.987 404.12 215.664C403.613 215.341 403.21 214.877 402.96 214.33C403.65 214.356 404.338 214.241 404.982 213.994C405.627 213.746 406.215 213.371 406.71 212.89C403.71 210.17 402.5 208.39 402.34 206.78C399.16 207.39 395.01 206.25 394.08 205.06C397.13 202.19 401.88 201.92 405.13 203.19C408.38 204.46 415 214 405.52 220.61Z" fill="#E0E0E0"/>
<path opacity="0.2" d="M399.5 214.51C400.232 214.517 400.933 214.811 401.45 215.33C400.752 215.188 400.089 214.91 399.5 214.51V214.51Z" fill="black"/>
<path opacity="0.2" d="M399.34 215C399.663 215.074 399.965 215.217 400.228 215.419C400.49 215.621 400.706 215.877 400.86 216.17C400.276 215.893 399.758 215.494 399.34 215V215Z" fill="black"/>
<path opacity="0.2" d="M392 211C392 211 391.74 210.28 391.29 210.45C391.446 210.719 391.701 210.916 392 211Z" fill="black"/>
<path opacity="0.2" d="M391.78 211.4C391.78 211.4 391.58 210.77 391.17 211.14C391.231 211.243 391.323 211.323 391.432 211.37C391.542 211.417 391.664 211.427 391.78 211.4V211.4Z" fill="black"/>
<path opacity="0.2" d="M395.31 207.3C397.059 207.607 398.758 208.152 400.36 208.92C397.51 208.15 395.31 207.3 395.31 207.3Z" fill="black"/>
<path opacity="0.2" d="M394.4 207.78C394.4 207.78 398.25 209.06 399.87 210.52C397.977 209.754 396.148 208.837 394.4 207.78V207.78Z" fill="black"/>
<path d="M407.1 223.44C406.495 223.879 405.808 224.193 405.08 224.365C404.352 224.537 403.598 224.562 402.86 224.44C400.86 224.1 400.74 222.12 402 220.7C403.26 219.28 405.51 218.05 407.15 219.13C407.506 219.367 407.798 219.69 407.998 220.069C408.198 220.448 408.3 220.87 408.295 221.298C408.29 221.727 408.178 222.147 407.969 222.521C407.761 222.895 407.462 223.211 407.1 223.44V223.44Z" fill="#7F3E3B"/>
<path d="M397.93 214.1C397.72 214.54 397.32 214.78 397.03 214.64C396.74 214.5 396.68 214.03 396.89 213.64C397.1 213.25 397.51 212.96 397.8 213.1C398.09 213.24 398.15 213.66 397.93 214.1Z" fill="#263238"/>
<path d="M393.24 211.91C393.02 212.35 392.62 212.59 392.33 212.45C392.04 212.31 391.99 211.84 392.2 211.45C392.41 211.06 392.82 210.77 393.1 210.91C393.38 211.05 393.45 211.47 393.24 211.91Z" fill="#263238"/>
<path d="M394.56 212.89L392.8 216.61C391.954 216.425 391.206 215.933 390.7 215.23C391.755 214.12 393.088 213.312 394.56 212.89Z" fill="#630F0F"/>
<path d="M400.08 213.36C400.129 213.37 400.181 213.37 400.23 213.36C400.304 213.343 400.368 213.298 400.409 213.235C400.45 213.171 400.465 213.094 400.45 213.02C400.374 212.569 400.19 212.143 399.915 211.778C399.641 211.412 399.282 211.118 398.87 210.92C398.836 210.905 398.799 210.897 398.762 210.897C398.725 210.897 398.688 210.904 398.654 210.917C398.619 210.931 398.588 210.952 398.561 210.978C398.535 211.005 398.514 211.036 398.5 211.07C398.47 211.14 398.469 211.22 398.497 211.291C398.525 211.362 398.58 211.419 398.65 211.45V211.45C398.974 211.614 399.254 211.851 399.47 212.143C399.685 212.434 399.829 212.773 399.89 213.13C399.898 213.182 399.92 213.231 399.953 213.271C399.987 213.312 400.03 213.342 400.08 213.36V213.36Z" fill="#263238"/>
<path d="M391.35 209.35C391.392 209.372 391.438 209.383 391.485 209.383C391.532 209.383 391.578 209.372 391.62 209.35C391.92 209.15 392.264 209.026 392.623 208.988C392.982 208.949 393.344 208.998 393.68 209.13C393.749 209.161 393.828 209.163 393.899 209.137C393.97 209.111 394.027 209.058 394.06 208.99C394.088 208.921 394.09 208.843 394.064 208.773C394.038 208.702 393.987 208.644 393.92 208.61C393.5 208.435 393.043 208.365 392.59 208.407C392.137 208.449 391.701 208.601 391.32 208.85C391.287 208.87 391.258 208.895 391.235 208.926C391.212 208.957 391.196 208.992 391.187 209.029C391.177 209.066 391.175 209.105 391.181 209.143C391.187 209.181 391.2 209.217 391.22 209.25C391.254 209.294 391.299 209.328 391.35 209.35V209.35Z" fill="#263238"/>
<path opacity="0.5" d="M403.38 246.22C403.11 249.87 404.49 259.49 406.17 262.11C406.94 260.11 407.71 258.11 408.44 256.11L403.38 246.22Z" fill="#407BFF"/>
<path d="M150.87 144.43C150.75 144.421 150.637 144.371 150.551 144.287C150.465 144.203 150.411 144.092 150.399 143.972C150.387 143.853 150.418 143.733 150.486 143.633C150.554 143.534 150.654 143.462 150.77 143.43L193.48 135.13C193.567 135.115 193.656 135.121 193.74 135.149C193.824 135.177 193.9 135.225 193.96 135.29C194.016 135.357 194.053 135.437 194.069 135.523C194.085 135.609 194.078 135.697 194.05 135.78L191.81 142.49C191.776 142.586 191.714 142.67 191.632 142.731C191.55 142.791 191.452 142.826 191.35 142.83L150.89 144.42L150.87 144.43ZM192.87 136.28L157.42 143.17L191 141.85L192.87 136.28Z" fill="#263238"/>
<path d="M150.32 162.67C150.225 162.667 150.132 162.639 150.05 162.59C149.939 162.518 149.861 162.405 149.832 162.276C149.804 162.147 149.829 162.011 149.9 161.9L171.54 127.75C171.575 127.694 171.62 127.646 171.674 127.607C171.727 127.569 171.788 127.542 171.852 127.527C171.916 127.512 171.982 127.51 172.047 127.521C172.112 127.531 172.174 127.555 172.23 127.59C172.287 127.624 172.336 127.669 172.376 127.722C172.415 127.776 172.442 127.836 172.457 127.901C172.472 127.965 172.474 128.032 172.463 128.097C172.451 128.162 172.426 128.225 172.39 128.28L150.74 162.44C150.696 162.512 150.634 162.571 150.561 162.611C150.487 162.651 150.404 162.672 150.32 162.67V162.67Z" fill="#263238"/>
<path d="M148.05 158.42C147.976 158.421 147.902 158.405 147.835 158.374C147.767 158.343 147.708 158.297 147.66 158.24C147.577 158.136 147.537 158.003 147.55 157.871C147.563 157.738 147.628 157.616 147.73 157.53L183.73 128.53C183.781 128.489 183.84 128.458 183.903 128.439C183.966 128.421 184.033 128.415 184.098 128.422C184.164 128.428 184.227 128.448 184.285 128.48C184.343 128.511 184.394 128.554 184.435 128.605C184.476 128.656 184.507 128.715 184.526 128.778C184.544 128.841 184.55 128.908 184.544 128.973C184.537 129.039 184.517 129.102 184.485 129.16C184.454 129.218 184.411 129.269 184.36 129.31L148.36 158.31C148.274 158.384 148.164 158.424 148.05 158.42Z" fill="#263238"/>
<path d="M396.92 305.94C396.787 305.94 396.66 305.887 396.566 305.794C396.473 305.7 396.42 305.573 396.42 305.44V289.81C396.42 282.81 393.52 280.11 393.49 280.09L191.05 142.75C190.995 142.713 190.948 142.665 190.912 142.61C190.876 142.554 190.851 142.492 190.839 142.427C190.827 142.362 190.827 142.295 190.841 142.23C190.855 142.166 190.882 142.104 190.92 142.05C190.956 141.995 191.003 141.949 191.057 141.913C191.112 141.876 191.173 141.852 191.238 141.839C191.302 141.827 191.368 141.828 191.432 141.842C191.496 141.856 191.556 141.882 191.61 141.92L394.11 279.3C394.29 279.46 397.42 282.35 397.42 289.81V305.44C397.42 305.573 397.367 305.7 397.274 305.794C397.18 305.887 397.053 305.94 396.92 305.94Z" fill="#263238"/>
<path d="M396.81 273.9L399.51 276.65C401.15 280.36 396.02 281.65 396.02 281.65L393.8 283.27C393.389 283.526 392.902 283.629 392.423 283.561C391.944 283.494 391.504 283.259 391.18 282.9L389.27 281C388.846 280.629 388.585 280.107 388.544 279.545C388.503 278.984 388.685 278.428 389.05 278L390.73 276.3C391.223 275.808 391.827 275.442 392.49 275.23L396.81 273.9Z" fill="#7F3E3B"/>
<path d="M412.63 237.08C413.01 237.72 413.27 238.18 413.57 238.71L414.39 240.23C414.93 241.23 415.44 242.23 415.94 243.3C416.94 245.37 417.8 247.5 418.61 249.68C419.425 251.898 420.109 254.162 420.66 256.46C421.227 258.893 421.598 261.368 421.77 263.86L421.86 265.12L421.61 266.02C421.111 267.857 420.217 269.564 418.99 271.02C418.107 272.069 417.118 273.024 416.04 273.87C414.245 275.275 412.323 276.51 410.3 277.56C408.4 278.56 406.51 279.39 404.61 280.15C402.71 280.91 400.85 281.54 398.77 282.15L395.08 272.24C396.54 271.52 398.19 270.63 399.69 269.77C401.19 268.91 402.69 267.99 404.07 267.04C405.343 266.196 406.535 265.235 407.63 264.17C408.013 263.807 408.349 263.397 408.63 262.95C408.81 262.64 408.76 262.49 408.63 262.88L408.47 265.04C408.203 263.366 407.809 261.714 407.29 260.1C406.72 258.41 406.07 256.7 405.29 254.99C404.51 253.28 403.68 251.58 402.79 249.91C402.34 249.07 401.88 248.24 401.4 247.42L400.68 246.22C400.45 245.84 400.17 245.4 400 245.15L412.63 237.08Z" fill="#407BFF"/>
<g opacity="0.3">
<path opacity="0.3" d="M412.63 237.08C413.01 237.72 413.27 238.18 413.57 238.71L414.39 240.23C414.93 241.23 415.44 242.23 415.94 243.3C416.94 245.37 417.8 247.5 418.61 249.68C419.425 251.898 420.109 254.162 420.66 256.46C421.227 258.893 421.598 261.368 421.77 263.86L421.86 265.12L421.61 266.02C421.111 267.857 420.217 269.564 418.99 271.02C418.107 272.069 417.118 273.024 416.04 273.87C414.245 275.275 412.323 276.51 410.3 277.56C408.4 278.56 406.51 279.39 404.61 280.15C402.71 280.91 400.85 281.54 398.77 282.15L395.08 272.24C396.54 271.52 398.19 270.63 399.69 269.77C401.19 268.91 402.69 267.99 404.07 267.04C405.343 266.196 406.535 265.235 407.63 264.17C408.013 263.807 408.349 263.397 408.63 262.95C408.81 262.64 408.76 262.49 408.63 262.88L408.47 265.04C408.203 263.366 407.809 261.714 407.29 260.1C406.72 258.41 406.07 256.7 405.29 254.99C404.51 253.28 403.68 251.58 402.79 249.91C402.34 249.07 401.88 248.24 401.4 247.42L400.68 246.22C400.45 245.84 400.17 245.4 400 245.15L412.63 237.08Z" fill="white"/>
</g>
<path d="M400.22 228.62C400.22 228.62 395.06 232.2 389.91 231.06C391.585 232.61 392.885 234.522 393.71 236.65C393.71 236.65 400.19 234.65 402.34 231.01C402.36 229.44 400.22 228.62 400.22 228.62Z" fill="white"/>
<path opacity="0.3" d="M356.53 320.87C356.49 320.864 356.452 320.85 356.418 320.829C356.384 320.808 356.354 320.78 356.331 320.748C356.308 320.715 356.291 320.678 356.282 320.639C356.274 320.6 356.273 320.559 356.28 320.52C362.72 279.52 381.83 242.06 382.02 241.68C382.058 241.609 382.122 241.557 382.199 241.532C382.275 241.508 382.358 241.514 382.43 241.55C382.499 241.59 382.55 241.654 382.574 241.73C382.598 241.806 382.593 241.888 382.56 241.96C382.36 242.33 363.29 279.66 356.87 320.62C356.855 320.697 356.812 320.765 356.749 320.812C356.686 320.858 356.608 320.879 356.53 320.87V320.87Z" fill="#407BFF"/>
<path d="M387.51 232.16L385.82 229.56L382.76 229.63C383.202 230.484 383.893 231.183 384.741 231.634C385.589 232.086 386.555 232.27 387.51 232.16V232.16Z" fill="#E0E0E0"/>
<path d="M389 226.19C389 226.19 386.4 227.94 385.86 229.56C384.045 229.824 382.262 230.276 380.54 230.91C381.906 228.601 384.051 226.856 386.59 225.99C387.395 225.813 388.235 225.882 389 226.19Z" fill="white"/>
<path d="M383.28 380.91H381.28L380.74 380.1L379.69 380.92H367.69C367.612 379.974 367.788 379.025 368.2 378.17C368.2 378.17 371.8 377.85 373.2 376.05C373.25 375.983 373.317 375.931 373.395 375.901C373.473 375.871 373.558 375.864 373.64 375.88C374.84 376.13 379.59 377.03 382.21 376.09C382.274 376.066 382.343 376.058 382.411 376.066C382.479 376.074 382.543 376.098 382.6 376.136C382.657 376.174 382.704 376.225 382.737 376.285C382.77 376.345 382.788 376.412 382.79 376.48C382.843 377.967 383.007 379.448 383.28 380.91Z" fill="#263238"/>
<path d="M154.51 186.88L158.2 189.06C162.63 189.83 162.63 183.96 162.63 183.96L163.78 181.14C163.947 180.628 163.928 180.074 163.727 179.575C163.526 179.076 163.155 178.663 162.68 178.41L160.11 176.87C159.604 176.517 158.98 176.377 158.372 176.48C157.764 176.582 157.221 176.92 156.86 177.42L155.47 179.69C155.067 180.35 154.834 181.098 154.79 181.87L154.51 186.88Z" fill="#FFB573"/>
<path d="M109 209L123.75 203.41L131.09 200.61C133.52 199.68 135.93 198.73 138.25 197.75L137.54 198.14C138.894 197.383 140.165 196.484 141.33 195.46C142.71 194.29 144.12 192.99 145.51 191.62C146.9 190.25 148.3 188.83 149.65 187.35C151 185.87 152.41 184.35 153.71 182.95L162.63 189.01C161.56 191.01 160.47 192.86 159.3 194.74C158.13 196.62 156.89 198.42 155.58 200.23C154.222 202.089 152.77 203.878 151.23 205.59C149.476 207.566 147.491 209.325 145.32 210.83L145.21 210.9L144.61 211.21C142.12 212.5 139.67 213.69 137.22 214.86C134.77 216.03 132.32 217.16 129.85 218.24C127.38 219.32 124.94 220.41 122.46 221.45C119.98 222.49 117.52 223.52 114.99 224.5L109 209Z" fill="#407BFF"/>
<g opacity="0.6">
<path opacity="0.6" d="M109 209L123.75 203.41L131.09 200.61C133.52 199.68 135.93 198.73 138.25 197.75L137.54 198.14C138.894 197.383 140.165 196.484 141.33 195.46C142.71 194.29 144.12 192.99 145.51 191.62C146.9 190.25 148.3 188.83 149.65 187.35C151 185.87 152.41 184.35 153.71 182.95L162.63 189.01C161.56 191.01 160.47 192.86 159.3 194.74C158.13 196.62 156.89 198.42 155.58 200.23C154.222 202.089 152.77 203.878 151.23 205.59C149.476 207.566 147.491 209.325 145.32 210.83L145.21 210.9L144.61 211.21C142.12 212.5 139.67 213.69 137.22 214.86C134.77 216.03 132.32 217.16 129.85 218.24C127.38 219.32 124.94 220.41 122.46 221.45C119.98 222.49 117.52 223.52 114.99 224.5L109 209Z" fill="white"/>
</g>
<path d="M132.4 210.52C131.887 209.276 130.972 208.241 129.8 207.58C129.451 206.352 129.536 205.042 130.04 203.87L116.57 198.2C117.27 202.88 117.82 206.58 115.92 208.66C118.49 210.57 123.22 214.01 128.68 214.34C134.14 214.67 133.11 212.53 132.4 210.52Z" fill="#FFB573"/>
<path d="M131.39 189.91L132.3 194.38C133.262 194.407 134.199 194.075 134.93 193.45C134.088 191.974 132.866 190.752 131.39 189.91V189.91Z" fill="#ED893E"/>
<path d="M131.19 189.33C131.35 189.85 131.76 190.18 132.1 190.07C132.44 189.96 132.57 189.44 132.41 188.93C132.25 188.42 131.83 188.08 131.49 188.2C131.15 188.32 131 188.82 131.19 189.33Z" fill="#263238"/>
<path d="M130.84 185.06C130.84 185.112 130.827 185.162 130.803 185.208C130.779 185.253 130.743 185.292 130.7 185.32C130.364 185.539 130.085 185.834 129.885 186.182C129.685 186.529 129.57 186.92 129.55 187.32C129.551 187.362 129.544 187.404 129.53 187.443C129.515 187.483 129.492 187.519 129.463 187.549C129.435 187.58 129.4 187.605 129.362 187.622C129.323 187.639 129.282 187.649 129.24 187.65C129.155 187.65 129.074 187.616 129.014 187.556C128.954 187.496 128.92 187.415 128.92 187.33C128.936 186.827 129.073 186.334 129.32 185.895C129.568 185.457 129.917 185.084 130.34 184.81C130.374 184.786 130.412 184.768 130.453 184.759C130.494 184.75 130.536 184.749 130.577 184.756C130.618 184.764 130.657 184.779 130.692 184.802C130.727 184.825 130.757 184.855 130.78 184.89C130.818 184.938 130.839 184.998 130.84 185.06V185.06Z" fill="#263238"/>
<path d="M113.11 193.16C115.55 199.38 117.34 203.54 121.89 205.03C130.89 208.03 134.19 203.12 133.66 196.28C133.17 190.13 129.27 181 122.25 180.54C120.696 180.437 119.142 180.73 117.733 181.392C116.323 182.054 115.105 183.062 114.192 184.323C113.278 185.585 112.7 187.057 112.511 188.602C112.322 190.148 112.528 191.716 113.11 193.16Z" fill="#FFB573"/>
<path d="M128.58 192.47C129.309 192.321 129.969 191.939 130.46 191.38C130.46 191.38 129.67 187.67 127.63 187C127.54 184.63 126.63 182.71 124.08 182.54C121.53 182.37 113.67 188.75 113.59 185.29C111.04 185.92 109.92 191.46 111.21 195.5C111.701 196.943 112.509 198.257 113.575 199.345C114.641 200.434 115.938 201.269 117.37 201.79C117.58 200.25 124.25 200.5 125.37 201C126 197.58 128.58 192.47 128.58 192.47Z" fill="#263238"/>
<path d="M123.39 183.4C123.321 183.401 123.252 183.387 123.188 183.36C123.124 183.332 123.067 183.291 123.02 183.24C122.4 182.652 121.662 182.204 120.855 181.925C120.048 181.645 119.19 181.541 118.34 181.62C118.207 181.631 118.076 181.588 117.975 181.502C117.873 181.416 117.811 181.293 117.8 181.16C117.789 181.027 117.832 180.896 117.918 180.795C118.004 180.693 118.127 180.631 118.26 180.62C119.262 180.529 120.273 180.655 121.222 180.99C122.171 181.325 123.037 181.86 123.76 182.56C123.852 182.655 123.904 182.782 123.904 182.915C123.904 183.048 123.852 183.175 123.76 183.27C123.71 183.315 123.652 183.35 123.588 183.373C123.525 183.395 123.457 183.404 123.39 183.4Z" fill="#263238"/>
<path d="M121 185.16C120.906 185.16 120.814 185.134 120.735 185.084C120.655 185.035 120.591 184.964 120.55 184.88C120.55 184.79 119.43 182.7 115.65 183.09C115.518 183.099 115.388 183.057 115.286 182.974C115.184 182.89 115.117 182.771 115.1 182.64C115.086 182.509 115.124 182.377 115.207 182.274C115.289 182.171 115.409 182.105 115.54 182.09C120.06 181.63 121.4 184.33 121.46 184.45C121.515 184.569 121.52 184.706 121.475 184.829C121.43 184.953 121.339 185.054 121.22 185.11C121.153 185.146 121.077 185.164 121 185.16V185.16Z" fill="#263238"/>
<path d="M119.52 187.23C119.425 187.231 119.332 187.203 119.252 187.152C119.172 187.1 119.109 187.027 119.07 186.94C119.07 186.83 118.07 184.72 114.18 184.86C114.114 184.864 114.047 184.855 113.985 184.832C113.922 184.809 113.865 184.773 113.817 184.727C113.769 184.681 113.732 184.626 113.706 184.564C113.681 184.503 113.668 184.436 113.67 184.37C113.667 184.305 113.678 184.24 113.7 184.179C113.723 184.118 113.758 184.062 113.803 184.014C113.847 183.967 113.901 183.929 113.961 183.902C114.02 183.876 114.085 183.861 114.15 183.86C118.7 183.71 119.93 186.41 119.98 186.53C120.031 186.651 120.034 186.787 119.988 186.91C119.941 187.033 119.849 187.133 119.73 187.19C119.664 187.218 119.592 187.231 119.52 187.23V187.23Z" fill="#263238"/>
<path d="M124.77 193.73C125.046 194.404 125.453 195.017 125.968 195.532C126.483 196.047 127.096 196.454 127.77 196.73C129.57 197.45 130.69 195.89 130.38 194.09C130.1 192.46 128.83 190.09 126.94 190.18C126.529 190.196 126.128 190.314 125.773 190.522C125.418 190.73 125.12 191.023 124.905 191.374C124.69 191.725 124.566 192.124 124.542 192.535C124.518 192.946 124.597 193.357 124.77 193.73V193.73Z" fill="#FFB573"/>
<path d="M134.39 365.42L124.22 365.52L124.61 377.51L133.1 377.45L134.39 365.42Z" fill="#FFB573"/>
<path opacity="0.2" d="M134.39 365.43L124.22 365.52L124.43 372.24L133.67 372.16L134.39 365.43Z" fill="black"/>
<path d="M123.59 317.64C120.05 301.85 114.17 285.19 120.36 271.02L148.61 273.49C148.61 273.49 145.82 307.08 145.06 321.28C144.28 336 134.7 370.1 134.7 370.1H123.06C123.06 370.1 121.25 334 123.59 317.64Z" fill="#263238"/>
<path d="M123 381.23H125.68L126.33 380.33L127.44 381.24H142.44C142.582 380.203 142.444 379.146 142.04 378.18C142.04 378.18 136.83 377.34 134.82 375.96C134.648 375.841 134.455 375.757 134.25 375.714C134.046 375.671 133.835 375.67 133.63 375.71C131.82 376.06 127.02 376.84 124.43 375.83C124.366 375.81 124.298 375.805 124.232 375.815C124.166 375.825 124.103 375.849 124.047 375.887C123.992 375.924 123.945 375.973 123.911 376.031C123.877 376.089 123.856 376.153 123.85 376.22C123.693 377.909 123.409 379.584 123 381.23V381.23Z" fill="#263238"/>
<path d="M93.58 354.21L83.74 351.63L80.16 363.09L88.37 365.26L93.58 354.21Z" fill="#FFB573"/>
<path opacity="0.2" d="M93.58 354.22L83.73 351.64L81.73 358.05L90.66 360.4L93.58 354.22Z" fill="black"/>
<path d="M91.82 314.76C92.39 299.35 93.35 276.31 99.13 269.76L130.74 271.9C130.74 271.9 118.93 304.68 114.38 318.53C109.64 332.94 92.3 358.74 92.3 358.74L81.68 355.88C81.68 355.88 86.12 331.89 91.82 314.76Z" fill="#263238"/>
<path d="M137 209.3C127.707 207.559 118.249 206.855 108.8 207.2C107.505 207.274 106.239 207.613 105.08 208.193C103.92 208.774 102.891 209.586 102.056 210.578C101.221 211.57 100.597 212.723 100.223 213.965C99.849 215.206 99.7322 216.511 99.88 217.8C102.26 240.24 97.69 266.61 97.75 271C97.75 271 138.96 288 149.98 275.12C155.3 248.38 147.64 225.12 144.07 215.35C143.509 213.82 142.564 212.461 141.326 211.401C140.087 210.342 138.598 209.618 137 209.3V209.3Z" fill="#407BFF"/>
<path opacity="0.1" d="M123.6 317.64C123.3 319.69 123.07 322.06 122.9 324.64C130.056 325.852 137.303 326.445 144.56 326.41C144.8 324.53 144.98 322.81 145.06 321.28C145.17 319.17 145.33 316.62 145.52 313.83C137.899 314.204 130.263 314.134 122.65 313.62C123 315 123.3 316.3 123.6 317.64Z" fill="#263238"/>
<path opacity="0.1" d="M91.54 315.57C98.3475 318.616 105.447 320.962 112.73 322.57C113.356 321.239 113.907 319.873 114.38 318.48C114.89 316.9 115.51 315.07 116.18 313.08C108.064 312.362 99.9927 311.21 92 309.63C91.93 311.41 91.86 313.13 91.8 314.76L91.54 315.57Z" fill="#263238"/>
<path d="M89.65 310C95.65 316 120.58 323.42 140.07 320.41C141.213 317.902 142.124 315.294 142.79 312.62C143.252 314.974 143.454 317.372 143.39 319.77C145.385 319.327 147.341 318.725 149.24 317.97C150.57 307.78 154 268.02 152.45 246.75C150.9 225.48 143.87 212.08 142.45 211.08C141.03 210.08 131.4 207.37 120.36 206.53C110.27 205.77 101.27 208.25 99.52 211.25C96.65 215.74 98.86 248.97 97.75 259.25C96.64 269.53 90.53 293.8 89.65 310Z" fill="#407BFF"/>
<path opacity="0.6" d="M89.65 310C95.65 316 120.58 323.42 140.07 320.41C141.213 317.902 142.124 315.294 142.79 312.62C143.252 314.974 143.454 317.372 143.39 319.77C145.385 319.327 147.341 318.725 149.24 317.97C150.57 307.78 154 268.02 152.45 246.75C150.9 225.48 143.87 212.08 142.45 211.08C141.03 210.08 131.4 207.37 120.36 206.53C110.27 205.77 101.27 208.25 99.52 211.25C96.65 215.74 98.86 248.97 97.75 259.25C96.64 269.53 90.53 293.8 89.65 310Z" fill="white"/>
<path d="M77 364.1L78.84 365.31L79.84 364.89L80.31 366.29L91.45 373.63C92.0989 372.797 92.5163 371.807 92.66 370.76C92.66 370.76 89.52 368.27 89.34 365.76C89.3334 365.665 89.301 365.574 89.2464 365.497C89.1917 365.419 89.1169 365.358 89.03 365.32C87.77 364.83 82.81 362.75 80.96 360.32C80.917 360.256 80.8589 360.204 80.7909 360.167C80.7229 360.131 80.6471 360.112 80.57 360.112C80.4929 360.112 80.4171 360.131 80.3491 360.167C80.2811 360.204 80.223 360.256 80.18 360.32C79.2193 361.66 78.1561 362.924 77 364.1Z" fill="#263238"/>
<path d="M170.21 212L172.99 215.26C176.93 217.43 178.85 211.88 178.85 211.88L180.85 209.58C181.174 209.152 181.336 208.624 181.309 208.088C181.281 207.552 181.066 207.043 180.7 206.65L178.77 204.35C178.401 203.857 177.855 203.526 177.247 203.427C176.639 203.329 176.016 203.469 175.51 203.82L173.51 205.51C172.911 206.001 172.443 206.633 172.15 207.35L170.21 212Z" fill="#FFB573"/>
<path d="M170.08 212.32C168.63 208.95 170.77 206.43 171.82 203.96C172 203.54 173.21 203.59 173.38 204.4C173.527 204.884 173.575 205.393 173.521 205.896C173.468 206.4 173.315 206.887 173.07 207.33C173.85 208.156 174.293 209.243 174.314 210.379C174.334 211.514 173.93 212.617 173.18 213.47C172.041 213.477 170.939 213.068 170.08 212.32V212.32Z" fill="#FFB573"/>
<path opacity="0.5" d="M148.14 223.51C146.97 222.65 145.82 221.84 144.7 221.09C141.36 222.18 139.58 224.75 141.13 226.4C142.98 228.4 146.35 230.25 150.25 231.45C149.6 228.52 148.88 225.86 148.14 223.51Z" fill="#407BFF"/>
<path opacity="0.5" d="M118.72 259.22C118.72 259.22 106.26 258.22 102.63 256.05C107 259.61 113 260.08 118.72 259.22Z" fill="#407BFF"/>
<path opacity="0.5" d="M117.31 260.67C117.31 260.67 108.14 261.24 105.31 260.06C108.83 262.18 113.25 261.89 117.31 260.67Z" fill="#407BFF"/>
<path d="M139.57 209.94L141.77 210.75L144.12 211.57C145.7 212.11 147.29 212.66 148.89 213.15C152.09 214.15 155.31 215.05 158.52 215.81L155.12 216.05C156.196 215.809 157.243 215.45 158.24 214.98C159.53 214.392 160.786 213.731 162 213C163.28 212.28 164.55 211.45 165.83 210.62C166.47 210.2 167.12 209.77 167.75 209.34L169.6 208.07L177.29 215.63C176.67 216.43 176.15 217.09 175.56 217.78C174.97 218.47 174.41 219.14 173.8 219.78C172.58 221.1 171.31 222.37 169.93 223.61C168.509 224.89 167.006 226.076 165.43 227.16C163.615 228.41 161.658 229.441 159.6 230.23L158.33 230.7L156.19 230.47C152.368 230.081 148.575 229.456 144.83 228.6C142.97 228.18 141.12 227.74 139.28 227.21L136.52 226.38C135.57 226.08 134.74 225.8 133.65 225.38L139.57 209.94Z" fill="#407BFF"/>
<g opacity="0.6">
<path opacity="0.6" d="M139.57 209.94L141.77 210.75L144.12 211.57C145.7 212.11 147.29 212.66 148.89 213.15C152.09 214.15 155.31 215.05 158.52 215.81L155.12 216.05C156.196 215.809 157.243 215.45 158.24 214.98C159.53 214.392 160.786 213.731 162 213C163.28 212.28 164.55 211.45 165.83 210.62C166.47 210.2 167.12 209.77 167.75 209.34L169.6 208.07L177.29 215.63C176.67 216.43 176.15 217.09 175.56 217.78C174.97 218.47 174.41 219.14 173.8 219.78C172.58 221.1 171.31 222.37 169.93 223.61C168.509 224.89 167.006 226.076 165.43 227.16C163.615 228.41 161.658 229.441 159.6 230.23L158.33 230.7L156.19 230.47C152.368 230.081 148.575 229.456 144.83 228.6C142.97 228.18 141.12 227.74 139.28 227.21L136.52 226.38C135.57 226.08 134.74 225.8 133.65 225.38L139.57 209.94Z" fill="white"/>
</g>
<path d="M265.184 45.9565H234.67C232.984 45.9565 231.618 47.3227 231.618 49.008V55.1108C231.618 56.7961 232.984 58.1623 234.67 58.1623H265.184C266.869 58.1623 268.235 56.7961 268.235 55.1108V49.008C268.235 47.3227 266.869 45.9565 265.184 45.9565Z" fill="#79A2FB"/>
<path d="M236.501 58.1622V67.9268L227.73 74.9429C226.658 75.8005 225.793 76.8883 225.198 78.1256C224.604 79.363 224.295 80.7183 224.295 82.0912V137.499C224.295 139.118 224.938 140.67 226.082 141.815C227.227 142.959 228.779 143.602 230.398 143.602H269.456C271.075 143.602 272.627 142.959 273.771 141.815C274.916 140.67 275.559 139.118 275.559 137.499V82.0912C275.559 80.7183 275.25 79.363 274.655 78.1256C274.061 76.8883 273.195 75.8005 272.123 74.9429L263.353 67.9268V58.1622H236.501Z" fill="#C9EFF7"/>
<path d="M224.295 87.4561H275.559V131.397H224.295V87.4561Z" fill="#79A2FB"/>
<path d="M273.648 74.7749L265.794 68.6414V62.6048C267.136 62.4566 268.376 61.8316 269.276 60.8488C270.176 59.8661 270.675 58.5943 270.677 57.2759V51.3183C270.675 49.8968 270.096 48.5339 269.066 47.5287C268.036 46.5235 266.64 45.9581 265.184 45.9565H260.912V50.7226H265.184C265.346 50.7227 265.501 50.7856 265.615 50.8973C265.73 51.0089 265.794 51.1604 265.794 51.3183V57.2759C265.794 57.4339 265.73 57.5853 265.615 57.697C265.501 57.8087 265.346 57.8715 265.184 57.8717H234.67C234.508 57.8715 234.353 57.8087 234.238 57.697C234.124 57.5853 234.06 57.4339 234.059 57.2759V51.3183C234.06 51.1604 234.124 51.0089 234.238 50.8973C234.353 50.7856 234.508 50.7227 234.67 50.7226H256.03V45.9565H234.67C233.213 45.9581 231.817 46.5235 230.788 47.5287C229.758 48.5339 229.179 49.8968 229.177 51.3183V57.2759C229.179 58.5943 229.677 59.8661 230.578 60.8488C231.478 61.8316 232.717 62.4566 234.059 62.6048V68.6414L226.206 74.7749C224.845 75.8327 223.746 77.1772 222.993 78.7078C222.239 80.2385 221.85 81.9157 221.854 83.6139V137.703C221.856 139.914 222.757 142.034 224.359 143.598C225.961 145.161 228.132 146.041 230.398 146.043H269.456C271.721 146.041 273.893 145.161 275.495 143.598C277.096 142.034 277.997 139.914 278 137.703V83.6139C278.004 81.9157 277.615 80.2385 276.861 78.7078C276.108 77.1772 275.009 75.8327 273.648 74.7749V74.7749ZM229.255 78.4967L238.026 71.6477C238.311 71.4245 238.542 71.1413 238.701 70.8191C238.859 70.497 238.942 70.1442 238.942 69.7868V62.6377H260.912V67.4037H243.824V72.1698H262.497L270.598 78.4967C271.386 79.1091 272.022 79.8875 272.458 80.7736C272.895 81.6598 273.12 82.6308 273.118 83.6139V86.4679H226.736V83.6139C226.734 82.6307 226.959 81.6598 227.395 80.7736C227.832 79.8875 228.468 79.1091 229.255 78.4967V78.4967ZM269.456 141.277H230.398C229.427 141.276 228.496 140.899 227.81 140.229C227.123 139.559 226.737 138.651 226.736 137.703V134.128H258.471V129.362H226.736V91.234H273.118V129.362H263.353V134.128H273.118V137.703C273.117 138.651 272.73 139.559 272.044 140.229C271.358 140.899 270.427 141.276 269.456 141.277Z" fill="#407BFF"/>
<path d="M236.156 105.504L233.3 114H229.856L227 105.504H229.832L231.584 111.348L233.324 105.504H236.156ZM241.42 112.716H238.588L238.168 114H235.372L238.48 105.504H241.552L244.648 114H241.84L241.42 112.716ZM240.772 110.712L240.004 108.348L239.236 110.712H240.772ZM244.234 109.74C244.234 108.9 244.402 108.152 244.738 107.496C245.082 106.84 245.57 106.332 246.202 105.972C246.834 105.604 247.578 105.42 248.434 105.42C249.17 105.42 249.826 105.56 250.402 105.84C250.986 106.112 251.458 106.5 251.818 107.004C252.186 107.508 252.43 108.096 252.55 108.768H249.742C249.614 108.488 249.43 108.272 249.19 108.12C248.958 107.96 248.69 107.88 248.386 107.88C247.938 107.88 247.582 108.048 247.318 108.384C247.062 108.72 246.934 109.172 246.934 109.74C246.934 110.308 247.062 110.76 247.318 111.096C247.582 111.432 247.938 111.6 248.386 111.6C248.69 111.6 248.958 111.524 249.19 111.372C249.43 111.212 249.614 110.992 249.742 110.712H252.55C252.43 111.384 252.186 111.972 251.818 112.476C251.458 112.98 250.986 113.372 250.402 113.652C249.826 113.924 249.17 114.06 248.434 114.06C247.578 114.06 246.834 113.88 246.202 113.52C245.57 113.152 245.082 112.64 244.738 111.984C244.402 111.328 244.234 110.58 244.234 109.74ZM255.393 105.504V114H252.729V105.504H255.393ZM263.964 114H261.3L258.48 109.728V114H255.816V105.504H258.48L261.3 109.848V105.504H263.964V114ZM269.835 112.716H267.003L266.583 114H263.787L266.895 105.504H269.967L273.063 114H270.255L269.835 112.716ZM269.187 110.712L268.419 108.348L267.651 110.712H269.187Z" fill="#1567E2"/>
</svg>
